<?xml version="1.0" encoding="UTF-8"?>
<!DOCTYPE svg PUBLIC "-//W3C//DTD SVG 1.1//EN" "http://www.w3.org/Graphics/SVG/1.1/DTD/svg11.dtd">
<!-- Creator: CorelDRAW Home & Student 2019 -->
<svg xmlns="http://www.w3.org/2000/svg" xml:space="preserve" width="12.7mm" height="12.7mm" version="1.1" style="shape-rendering:geometricPrecision; text-rendering:geometricPrecision; image-rendering:optimizeQuality; fill-rule:evenodd; clip-rule:evenodd"
viewBox="0 0 1270 1270"
 xmlns:xlink="http://www.w3.org/1999/xlink">
 <defs>
  <style type="text/css">
   <![CDATA[
    .fil5 {fill:none}
    .fil4 {fill:black}
    .fil0 {fill:#5ECDE4}
    .fil2 {fill:#F30D0D}
    .fil1 {fill:#FAF236}
    .fil3 {fill:white}
   ]]>
  </style>
 </defs>
 <g id="Warstwa_x0020_1">
  <metadata id="CorelCorpID_0Corel-Layer"/>
  <g id="_693013272">
   <path class="fil0" d="M321.14 1031.61c43.26,-10.1 99.09,-52.27 110.02,-93.08 -20.19,-27.48 -37.43,-21.81 -65.48,-44.54 -214.38,-173.79 -85.57,-450.21 73.94,-463.5 -14.18,-52.84 -114.54,-92.01 -160.86,-93.04 7.78,-29.3 28.56,-42.78 62.78,-48.2 41.42,-6.56 158.78,57.43 174.38,124.3 1.17,-1.7 2.42,-4.24 3.03,-5.39l73.16 -163.84c22.5,-35.93 94.57,-104 152.4,-76.3 -4.44,53.61 -141.71,132.32 -123.89,216.27 21.47,101.12 146.17,49.88 157.75,190.18 8.25,30.93 8.93,17.72 25.39,42.3 119.72,0 124.94,-22.74 186.26,-8.46 -2.92,35.12 2.48,12.84 -11.92,30.46l-66.81 43.26c-105.7,53.01 -179.8,0.73 -152.44,62.17 25.23,56.68 96.38,48.7 112.64,109.66 -58.92,88.15 -141.31,-15.61 -177.8,-25.38 -33.32,63.21 -6.69,107.15 17.06,160.71 10.92,24.63 22.22,47.76 38.52,71.54 18.34,26.76 30.18,31.84 46.04,55.57 67.19,-32.5 62.71,-19.9 138.85,-72.75 127.2,-88.31 222.29,-262.79 207.82,-443.27 -10.95,-136.69 -63.06,-220.96 -126.42,-305.38 -156.02,-207.89 -644.79,-275.01 -838.51,118.52 -77.15,156.72 -66.77,349.46 37.34,504.86 38.89,58.04 50.46,75.51 106.75,113.33z"/>
   <path class="fil1" d="M321.14 1031.61c54.08,47.22 134.62,83.82 206.71,98.13 116.53,23.13 168.23,9.74 267.46,-13.44 -15.86,-23.73 -27.7,-28.81 -46.04,-55.57 -16.3,-23.78 -27.6,-46.91 -38.52,-71.54 -23.75,-53.56 -50.38,-97.5 -17.06,-160.71 -5.68,-10.71 -12.78,-22.23 -18.14,-32.7 -6.83,-13.37 -9.26,-22.65 -15.96,-34.84 -14.23,-25.92 -29.98,-39.42 -67.52,-42.54 -30.11,7.01 -47.21,18.59 -80.57,-3.88 -33.8,-22.76 -67.86,-57.58 -51.98,-111.02 6.53,-21.98 29.25,-41.62 47.19,-55.25 29.09,-22.1 52.19,-23.55 81.1,-3.65l13.8 11.83c11,8.99 13.19,10.58 24.32,18.03l152.44 0.01c-11.58,-140.3 -136.28,-89.06 -157.75,-190.18 -17.82,-83.95 119.45,-162.66 123.89,-216.27 -57.83,-27.7 -129.9,40.37 -152.4,76.3l-73.16 163.84c-0.61,1.15 -1.86,3.69 -3.03,5.39 -15.6,-66.87 -132.96,-130.86 -174.38,-124.3 -34.22,5.42 -55,18.9 -62.78,48.2 46.32,1.03 146.68,40.2 160.86,93.04 -159.51,13.29 -288.32,289.71 -73.94,463.5 28.05,22.73 45.29,17.06 65.48,44.54 -10.93,40.81 -66.76,82.98 -110.02,93.08z"/>
   <path class="fil2" d="M642.85 633.73l-0.02 42.3c-27.69,18.55 -11.78,22.14 -50.76,25.42l0 16.95c37.54,3.12 53.29,16.62 67.52,42.54 6.7,12.19 9.13,21.47 15.96,34.84 5.36,10.47 12.46,21.99 18.14,32.7 36.49,9.77 118.88,113.53 177.8,25.38 -16.26,-60.96 -87.41,-52.98 -112.64,-109.66 -27.36,-61.44 46.74,-9.16 152.44,-62.17l66.81 -43.26c14.4,-17.62 9,4.66 11.92,-30.46 -61.32,-14.28 -66.54,8.46 -186.26,8.46 -16.46,-24.58 -17.14,-11.37 -25.39,-42.3l-152.44 -0.01c11.88,22.45 16.18,24.61 16.92,59.27z"/>
   <path class="fil3" d="M592.07 718.4l0 -16.95c-32.88,-8.75 -60.35,-38.23 -32.99,-74.83 32.36,-43.27 61.42,-7.88 83.77,7.11 -0.74,-34.66 -5.04,-36.82 -16.92,-59.27 -11.13,-7.45 -13.32,-9.04 -24.32,-18.03l-13.8 -11.83c-28.91,-19.9 -52.01,-18.45 -81.1,3.65 -17.94,13.63 -40.66,33.27 -47.19,55.25 -15.88,53.44 18.18,88.26 51.98,111.02 33.36,22.47 50.46,10.89 80.57,3.88z"/>
   <path class="fil4" d="M592.07 701.45c38.98,-3.28 23.07,-6.87 50.76,-25.42l0.02 -42.3c-22.35,-14.99 -51.41,-50.38 -83.77,-7.11 -27.36,36.6 0.11,66.08 32.99,74.83z"/>
  </g>
  <ellipse class="fil5" cx="635" cy="635" rx="508.12" ry="499.53"/>
 </g>
</svg>
